<svg height="25" viewBox="0 0 512 512" width="25" xmlns="http://www.w3.org/2000/svg"><g id="BULINE"><circle cx="256" cy="256" fill="#934cf5" r="256"/></g><g id="Icons"><path d="m512 255.91v.09c0 141.38-114.62 256-256 256a256 256 0 0 1 -256-256v-.09z" fill="#db1b1b"/><path d="m512 255.91v.09h-512v-.09a256 256 0 0 1 256-255.91c141.35 0 256 114.56 256 255.91z" fill="#fff"/><path d="m287.76 510a256 256 0 0 1 -287.76-254v-.09h63.55v.09a256 256 0 0 0 224.21 254z" fill="#bc1919"/><path d="m287.76 2a255.86 255.86 0 0 0 -224.21 254h-63.55v-.09a256.13 256.13 0 0 1 287.76-253.91z" fill="#cecece"/><g fill="#e83a3a"><circle cx="442.44" cy="370.72" r="16.28"/><circle cx="466.42" cy="346.74" r="11.53"/></g></g></svg>